{"accessors" : [{"bufferView" : 0, "byteOffset" : 0, "componentType" : 5123, "count" : 17064, "type" : "SCALAR", "max" : [12985], "min" : [0]}, {"bufferView" : 1, "byteOffset" : 0, "componentType" : 5126, "count" : 12986, "type" : "VEC3", "max" : [-38.64339828491211, 700.6353759765625, 483.5981140136719], "min" : [-406.2958068847656, 21.369600296020508, 115.98870086669922], "name" : "POSITION"}, {"bufferView" : 1, "byteOffset" : 12, "componentType" : 5126, "count" : 12986, "type" : "VEC2", "max" : [0.8622999787330627, 0.18039999902248383], "min" : [0.13770000636577606, -1.2202999591827393], "name" : "TEXCOORD_0"}, {"bufferView" : 1, "byteOffset" : 20, "componentType" : 5126, "count" : 12986, "type" : "VEC3", "max" : [1.0000044107437134, 1.0000044107437134, 1.0000044107437134], "min" : [-1.0000044107437134, -1.0000044107437134, -1.0000044107437134], "name" : "NORMAL"}, {"bufferView" : 0, "byteOffset" : 34128, "componentType" : 5123, "count" : 5508, "type" : "SCALAR", "max" : [4217], "min" : [0]}, {"bufferView" : 2, "byteOffset" : 0, "componentType" : 5126, "count" : 4218, "type" : "VEC3", "max" : [-176.48779296875, 711.7219848632812, 345.7698059082031], "min" : [-268.4513854980469, 642.452880859375, 253.81700134277344], "name" : "POSITION"}, {"bufferView" : 2, "byteOffset" : 12, "componentType" : 5126, "count" : 4218, "type" : "VEC2", "max" : [0.9911999702453613, -0.008799999952316284], "min" : [0.008799999952316284, -0.9911999702453613], "name" : "TEXCOORD_0"}, {"bufferView" : 2, "byteOffset" : 20, "componentType" : 5126, "count" : 4218, "type" : "VEC3", "max" : [0.9999731779098511, 1.0000044107437134, 0.9999731779098511], "min" : [-0.9999731779098511, -0.5749136805534363, -0.9999731779098511], "name" : "NORMAL"}], "asset" : {"generator" : "Aspose.3D 22.1", "version" : "2.0"}, "buffers" : [{"uri" : "data:application/octet-stream;base64,", "byteLength" : 767460}], "bufferViews" : [{"buffer" : 0, "byteOffset" : 0, "byteLength" : 45144, "target" : 34963}, {"buffer" : 0, "byteOffset" : 45148, "byteLength" : 546048, "byteStride" : 32, "target" : 34962}, {"buffer" : 0, "byteOffset" : 591200, "byteLength" : 176256, "byteStride" : 32, "target" : 34962}], "meshes" : [{"primitives" : [{"attributes" : {"POSITION" : 1, "TEXCOORD_0" : 2, "NORMAL" : 3}, "indices" : 0, "mode" : 4}], "name" : ""}, {"primitives" : [{"attributes" : {"POSITION" : 5, "TEXCOORD_0" : 6, "NORMAL" : 7}, "indices" : 4, "mode" : 4}], "name" : ""}], "nodes" : [{"mesh" : 0, "name" : "Cylinder006"}, {"mesh" : 1, "name" : "1229"}], "scene" : 0, "scenes" : [{"nodes" : [0, 1]}]}